# xmcd
#
# Track frame offsets: 
#        150
#        12517
#        24777
#        47920
#        63312
#        82800
#        93770
#        112060
#        127265
#        155295
#        170130
#
# Disc length: 2472 seconds
#
# Revision: 6
# Processed by: cddbd v1.5.2PL0 Copyright (c) Steve Scherf et al.
# Submitted via: ExactAudioCopy v0.99pb5
#
DISCID=8709a60b
DTITLE=Hound Dog Taylor and the Houserockers - Natural Boogie
DYEAR=1989
DGENRE=Blues
TTITLE0=Take Five
TTITLE1=Hawaiian Boogie
TTITLE2=See Me In The Evening
TTITLE3=You Can't Sit Down
TTITLE4=Sitting At Home Alone
TTITLE5=One More Time
TTITLE6=Roll Your Moneymaker
TTITLE7=Buster's Boogie
TTITLE8=Sadie
TTITLE9=Talk To My Baby aka I Can't Hold Out
TTITLE10=Goodnight Boogie
EXTD=ID3G:   0 YEAR: 1989
EXTT0=
EXTT1=
EXTT2=
EXTT3=
EXTT4=
EXTT5=
EXTT6=
EXTT7=
EXTT8=
EXTT9=
EXTT10=
PLAYORDER=
